<svg xmlns="http://www.w3.org/2000/svg" xmlns:xlink="http://www.w3.org/1999/xlink" width="500" zoomAndPan="magnify" viewBox="0 0 375 374.999991" height="500" preserveAspectRatio="xMidYMid meet" version="1.0"><defs><g/></defs><g fill="#f0ddcb" fill-opacity="1"><g transform="translate(173.064617, 191.901674)"><g><path d="M 13.601562 -12.53125 L 13.601562 -12.355469 L 14.867188 -12.269531 L 11.503906 -1.15625 L 8.382812 -12.269531 L 9.429688 -12.355469 L 9.429688 -12.53125 L 7.074219 -12.53125 L 8.035156 -9.191406 C 7.03125 -5.917969 5.589844 -1.15625 5.589844 -1.15625 L 2.25 -12.269531 L 3.296875 -12.355469 L 3.296875 -12.53125 L 0 -12.53125 L 0 -12.355469 L 1.027344 -12.269531 L 4.738281 0 L 5.589844 0 L 8.207031 -8.601562 L 10.652344 0 L 11.503906 0 L 15.21875 -12.269531 L 16.394531 -12.355469 L 16.394531 -12.53125 Z M 13.601562 -12.53125 "/></g></g></g><g fill="#f0ddcb" fill-opacity="1"><g transform="translate(189.455123, 191.901674)"><g><path d="M 11.003906 -2.117188 C 10.414062 -0.480469 9.191406 -0.0429688 7.421875 -0.0429688 C 4.386719 -0.0429688 2.160156 -2.160156 2.160156 -6.265625 C 2.160156 -10.390625 4.34375 -12.488281 7.574219 -12.488281 C 9.191406 -12.488281 10.414062 -12.050781 11.003906 -10.414062 L 11.59375 -8.796875 L 11.789062 -8.796875 L 11.113281 -12.140625 C 10.152344 -12.511719 8.753906 -12.75 7.597656 -12.75 C 3.863281 -12.75 0.875 -10.195312 0.875 -6.265625 C 0.875 -2.359375 3.863281 0.21875 7.421875 0.21875 C 8.6875 0.21875 10.152344 -0.0234375 11.113281 -0.394531 L 11.789062 -3.734375 L 11.59375 -3.734375 Z M 11.003906 -2.117188 "/></g></g></g></svg>